<svg width="40" height="40" viewBox="0 0 40 40" fill="none" xmlns="http://www.w3.org/2000/svg">
<rect width="40" height="40" rx="20" fill="#25233B"/>
<path d="M17.9053 26.9438V26.9438C17.9053 28.1008 18.8431 29.0386 20.0001 29.0386V29.0386C21.157 29.0386 22.0948 28.1008 22.0948 26.9438V26.9438" stroke="white" stroke-width="1.5"/>
<path d="M14.5636 15.7354C14.9063 12.9936 17.2371 10.936 20.0002 10.936C22.7634 10.936 25.0941 12.9936 25.4368 15.7354L26.0389 20.5515C26.2431 22.1858 26.8704 23.7384 27.8585 25.0559C27.8702 25.0715 27.871 25.0799 27.8713 25.084C27.8718 25.091 27.8704 25.1024 27.8639 25.1154C27.8574 25.1284 27.8491 25.1364 27.8431 25.1402C27.8398 25.1424 27.8325 25.1469 27.8131 25.1469H12.1874C12.168 25.1469 12.1607 25.1424 12.1573 25.1402C12.1514 25.1364 12.1431 25.1284 12.1366 25.1154C12.1301 25.1024 12.1287 25.091 12.1292 25.084C12.1295 25.0799 12.1303 25.0715 12.1419 25.0559C13.1301 23.7384 13.7573 22.1858 13.9616 20.5515L14.5636 15.7354Z" stroke="white" stroke-width="1.5"/>
</svg>
