<svg width="40" height="40" viewBox="0 0 40 40" fill="none" xmlns="http://www.w3.org/2000/svg">
<rect width="40" height="40" rx="20" fill="#38364C"/>
<path d="M24.6808 20C24.6808 22.6638 24.1061 25.0382 23.2138 26.7194C22.3038 28.4338 21.1751 29.25 20.1231 29.25C19.0711 29.25 17.9424 28.4338 17.0325 26.7194C16.1401 25.0382 15.5654 22.6638 15.5654 20C15.5654 17.3362 16.1401 14.9618 17.0325 13.2806C17.9424 11.5662 19.0711 10.75 20.1231 10.75C21.1751 10.75 22.3038 11.5662 23.2138 13.2806C24.1061 14.9618 24.6808 17.3362 24.6808 20Z" stroke="white" stroke-width="1.5"/>
<path d="M10.5693 20H29.677" stroke="white" stroke-width="1.5"/>
<rect x="10.1348" y="10.75" width="19.5" height="18.5" rx="9.25" stroke="white" stroke-width="1.5"/>
</svg>
