<svg width="40" height="40" viewBox="0 0 40 40" fill="none" xmlns="http://www.w3.org/2000/svg">
<rect width="40" height="40" rx="20" fill="#38364C"/>
<path fill-rule="evenodd" clip-rule="evenodd" d="M19.4142 12.5H20.3989C23.9887 12.5 26.8989 15.4101 26.8989 19C26.8989 22.5899 23.9887 25.5 20.3989 25.5H19.4142C15.8244 25.5 12.9142 22.5899 12.9142 19C12.9142 15.4101 15.8244 12.5 19.4142 12.5ZM11.4142 19C11.4142 14.5817 14.996 11 19.4142 11H20.3989C24.8171 11 28.3989 14.5817 28.3989 19C28.3989 20.3575 28.0607 21.636 27.4641 22.756L30.0566 26.9859L30.6824 28.007L29.4626 28.076L26.826 28.225L25.3707 30.3015L24.6974 31.2621L24.0716 30.241L21.9884 26.8421C21.4747 26.9457 20.9431 27 20.3989 27H19.4142C18.8604 27 18.3196 26.9437 17.7975 26.8365L15.7109 30.241L15.0851 31.2621L14.4118 30.3015L12.9564 28.2251L10.3199 28.076L9.1001 28.007L9.72592 26.9859L12.3348 22.7292C11.747 21.6157 11.4142 20.3467 11.4142 19ZM23.4683 26.39C24.6697 25.8904 25.7231 25.1064 26.5444 24.122L28.113 26.6814L26.3255 26.7825L25.9548 26.8035L25.7502 27.0954L24.7635 28.5032L23.4683 26.39ZM13.2511 24.1008L11.6695 26.6815L13.457 26.7825L13.8277 26.8035L14.0323 27.0955L15.019 28.5032L16.3204 26.3798C15.1206 25.8762 14.0694 25.0885 13.2511 24.1008ZM20.1901 15.8222C20.0971 15.5527 19.7159 15.5527 19.6229 15.8222L19.0229 17.5618C18.9812 17.6827 18.8673 17.7639 18.7393 17.7639H16.8376C16.5427 17.7639 16.4248 18.1449 16.6682 18.3115L18.1753 19.343C18.2867 19.4193 18.3335 19.5606 18.2894 19.6883L17.7066 21.3781C17.6124 21.6513 17.9211 21.8867 18.1597 21.7234L19.7371 20.6438C19.8392 20.5739 19.9738 20.5739 20.0759 20.6438L21.6533 21.7234C21.8919 21.8867 22.2006 21.6513 22.1064 21.3781L21.5236 19.6883C21.4795 19.5606 21.5263 19.4193 21.6377 19.343L23.1448 18.3115C23.3882 18.1449 23.2703 17.7639 22.9753 17.7639H21.0737C20.9457 17.7639 20.8318 17.6827 20.7901 17.5618L20.1901 15.8222Z" fill="white"/>
</svg>
