<svg width="40" height="40" viewBox="0 0 40 40" fill="none" xmlns="http://www.w3.org/2000/svg">
<rect width="40" height="40" rx="20" fill="#38364C"/>
<mask id="path-2-inside-1_1130_4560" fill="white">
<path fill-rule="evenodd" clip-rule="evenodd" d="M20.0008 15.5483C17.3848 15.5483 15.0622 16.8019 13.5992 18.7495C12.9359 19.6327 11.6821 19.8109 10.799 19.1475C9.91578 18.4841 9.7376 17.2304 10.401 16.3472C12.5869 13.437 16.0736 11.5483 20.0008 11.5483C23.9281 11.5483 27.4148 13.437 29.6007 16.3472C30.2641 17.2304 30.0859 18.4841 29.2027 19.1475C28.3196 19.8109 27.0658 19.6327 26.4024 18.7495C24.9395 16.8019 22.6169 15.5483 20.0008 15.5483ZM20.0001 21.5483C19.0201 21.5483 18.15 22.0162 17.5993 22.7494C16.936 23.6326 15.6822 23.8109 14.799 23.1475C13.9158 22.4842 13.7376 21.2305 14.4009 20.3473C15.6745 18.6515 17.7088 17.5483 20.0001 17.5483C22.2915 17.5483 24.3257 18.6515 25.5993 20.3473C26.2626 21.2305 26.0844 22.4842 25.2012 23.1475C24.318 23.8109 23.0643 23.6326 22.4009 22.7494C21.8503 22.0162 20.9801 21.5483 20.0001 21.5483ZM20.0001 23.5483C18.646 23.5483 17.5482 24.6461 17.5482 26.0002C17.5482 27.3544 18.646 28.4521 20.0001 28.4521C21.3543 28.4521 22.452 27.3544 22.452 26.0002C22.452 24.6461 21.3543 23.5483 20.0001 23.5483Z"/>
</mask>
<path d="M13.5992 18.7495L14.7986 19.6504L14.7986 19.6504L13.5992 18.7495ZM10.799 19.1475L9.89809 20.3468L9.8981 20.3468L10.799 19.1475ZM10.401 16.3472L9.20163 15.4463H9.20163L10.401 16.3472ZM29.6007 16.3472L28.4014 17.2481V17.2481L29.6007 16.3472ZM29.2027 19.1475L30.1036 20.3468L29.2027 19.1475ZM26.4024 18.7495L27.6018 17.8486L27.6018 17.8486L26.4024 18.7495ZM17.5993 22.7494L16.3999 21.8486H16.3999L17.5993 22.7494ZM14.799 23.1475L13.8982 24.3469L13.8982 24.3469L14.799 23.1475ZM14.4009 20.3473L13.2015 19.4464L13.2015 19.4464L14.4009 20.3473ZM25.5993 20.3473L24.3999 21.2481L25.5993 20.3473ZM25.2012 23.1475L26.102 24.3469L26.102 24.3469L25.2012 23.1475ZM22.4009 22.7494L23.6003 21.8486L23.6003 21.8486L22.4009 22.7494ZM14.7986 19.6504C15.9901 18.064 17.8761 17.0483 20.0008 17.0483V14.0483C16.8935 14.0483 14.1342 15.5397 12.3999 17.8486L14.7986 19.6504ZM9.8981 20.3468C11.4437 21.5077 13.6377 21.1959 14.7986 19.6504L12.3999 17.8486C12.2341 18.0694 11.9206 18.114 11.6998 17.9481L9.8981 20.3468ZM9.20163 15.4463C8.04072 16.9919 8.35254 19.1859 9.89809 20.3468L11.6998 17.9481C11.479 17.7823 11.4345 17.4688 11.6003 17.2481L9.20163 15.4463ZM20.0008 10.0483C15.5816 10.0483 11.6585 12.1754 9.20163 15.4463L11.6003 17.2481C13.5153 14.6986 16.5656 13.0483 20.0008 13.0483V10.0483ZM30.8001 15.4463C28.3432 12.1754 24.4201 10.0483 20.0008 10.0483V13.0483C23.4361 13.0483 26.4864 14.6986 28.4014 17.2481L30.8001 15.4463ZM30.1036 20.3468C31.6492 19.1859 31.961 16.9919 30.8001 15.4463L28.4014 17.2481C28.5672 17.4688 28.5227 17.7823 28.3019 17.9481L30.1036 20.3468ZM25.2031 19.6504C26.364 21.1959 28.558 21.5077 30.1036 20.3468L28.3019 17.9481C28.0811 18.114 27.7676 18.0694 27.6018 17.8486L25.2031 19.6504ZM20.0008 17.0483C22.1256 17.0483 24.0116 18.064 25.2031 19.6504L27.6018 17.8486C25.8675 15.5397 23.1081 14.0483 20.0008 14.0483V17.0483ZM18.7987 23.6502C19.0775 23.279 19.5108 23.0483 20.0001 23.0483V20.0483C18.5295 20.0483 17.2224 20.7535 16.3999 21.8486L18.7987 23.6502ZM13.8982 24.3469C15.4438 25.5078 17.6378 25.1959 18.7987 23.6502L16.3999 21.8486C16.2341 22.0694 15.9206 22.114 15.6998 21.9481L13.8982 24.3469ZM13.2015 19.4464C12.0407 20.9921 12.3526 23.1861 13.8982 24.3469L15.6998 21.9481C15.479 21.7823 15.4345 21.4689 15.6003 21.2481L13.2015 19.4464ZM20.0001 16.0483C17.2165 16.0483 14.7459 17.3902 13.2015 19.4464L15.6003 21.2481C16.6031 19.9129 18.201 19.0483 20.0001 19.0483V16.0483ZM26.7987 19.4464C25.2543 17.3902 22.7837 16.0483 20.0001 16.0483V19.0483C21.7992 19.0483 23.3971 19.9129 24.3999 21.2481L26.7987 19.4464ZM26.102 24.3469C27.6476 23.1861 27.9595 20.9921 26.7987 19.4464L24.3999 21.2481C24.5657 21.4689 24.5212 21.7823 24.3004 21.9481L26.102 24.3469ZM21.2015 23.6502C22.3624 25.1959 24.5564 25.5078 26.102 24.3469L24.3004 21.9481C24.0796 22.114 23.7662 22.0694 23.6003 21.8486L21.2015 23.6502ZM20.0001 23.0483C20.4895 23.0483 20.9227 23.279 21.2015 23.6502L23.6003 21.8486C22.7778 20.7535 21.4707 20.0483 20.0001 20.0483V23.0483ZM19.0482 26.0002C19.0482 25.4745 19.4744 25.0483 20.0001 25.0483V22.0483C17.8176 22.0483 16.0482 23.8177 16.0482 26.0002H19.0482ZM20.0001 26.9521C19.4744 26.9521 19.0482 26.5259 19.0482 26.0002H16.0482C16.0482 28.1828 17.8176 29.9521 20.0001 29.9521V26.9521ZM20.952 26.0002C20.952 26.5259 20.5258 26.9521 20.0001 26.9521V29.9521C22.1827 29.9521 23.952 28.1828 23.952 26.0002H20.952ZM20.0001 25.0483C20.5258 25.0483 20.952 25.4745 20.952 26.0002H23.952C23.952 23.8177 22.1827 22.0483 20.0001 22.0483V25.0483Z" fill="white" mask="url(#path-2-inside-1_1130_4560)"/>
</svg>
