<svg width="30" height="30" viewBox="0 0 30 30" fill="none" xmlns="http://www.w3.org/2000/svg">
<rect width="30" height="30" rx="15" fill="#38364C"/>
<rect x="12.4316" y="12.4312" width="1.92649" height="1.92649" rx="0.963245" fill="white"/>
<rect x="15.6416" y="15.6421" width="1.92649" height="1.92649" rx="0.963245" fill="white"/>
<path d="M16.9961 13.0039L13.0037 16.9963" stroke="white" stroke-width="1.5" stroke-linecap="round"/>
<path d="M14.5938 8.30729C14.6773 7.85655 15.3232 7.85655 15.4067 8.30729C15.6834 9.79962 17.5042 10.3912 18.6051 9.34652C18.9377 9.03098 19.4602 9.4106 19.2628 9.82437C18.6095 11.1943 19.7348 12.7432 21.2396 12.5451C21.6941 12.4853 21.8936 13.0995 21.4908 13.3183C20.157 14.0425 20.157 15.957 21.4908 16.6813C21.8936 16.9 21.6941 17.5143 21.2396 17.4545C19.7348 17.2564 18.6095 18.8053 19.2628 20.1752C19.4602 20.589 18.9377 20.9686 18.6051 20.653C17.5042 19.6083 15.6834 20.1999 15.4067 21.6923C15.3232 22.143 14.6773 22.143 14.5938 21.6923C14.3171 20.1999 12.4963 19.6083 11.3954 20.653C11.0628 20.9686 10.5403 20.589 10.7377 20.1752C11.391 18.8053 10.2657 17.2564 8.76093 17.4545C8.30642 17.5143 8.10685 16.9 8.50971 16.6813C9.84351 15.957 9.84351 14.0425 8.50971 13.3183C8.10685 13.0995 8.30643 12.4853 8.76093 12.5451C10.2657 12.7432 11.391 11.1943 10.7377 9.82437C10.5403 9.4106 11.0628 9.03098 11.3954 9.34652C12.4963 10.3912 14.3171 9.79962 14.5938 8.30729Z" stroke="white" stroke-width="1.5"/>
</svg>
