<svg width="40" height="40" viewBox="0 0 40 40" fill="none" xmlns="http://www.w3.org/2000/svg">
<rect width="40" height="40" rx="20" fill="#38364C"/>
<path d="M18.1675 26.9438V26.9438C18.1675 28.1008 19.1053 29.0386 20.2623 29.0386H20.5201C21.677 29.0386 22.6149 28.1008 22.6149 26.9438V26.9438" stroke="white" stroke-width="1.5"/>
<path d="M14.5298 16.0711C14.9199 13.1319 17.4264 10.936 20.3914 10.936C23.3563 10.936 25.8629 13.1319 26.2529 16.0711L26.8408 20.5021C27.0628 22.1754 27.7355 23.7569 28.7869 25.0774C28.7932 25.0854 28.7954 25.0904 28.7962 25.0923C28.797 25.0943 28.7974 25.096 28.7976 25.0979C28.7979 25.1023 28.7973 25.1114 28.7919 25.1226C28.7865 25.1339 28.7798 25.14 28.7761 25.1424C28.7745 25.1435 28.773 25.1442 28.7708 25.1449C28.7689 25.1455 28.7635 25.1469 28.7534 25.1469H12.0293C12.0192 25.1469 12.0138 25.1455 12.0119 25.1449C12.0098 25.1442 12.0082 25.1435 12.0066 25.1424C12.0029 25.14 11.9962 25.1339 11.9908 25.1226C11.9854 25.1114 11.9848 25.1023 11.9852 25.0979C11.9853 25.096 11.9857 25.0943 11.9865 25.0923C11.9873 25.0904 11.9895 25.0854 11.9958 25.0774C13.0472 23.7569 13.7199 22.1754 13.9419 20.5021L14.5298 16.0711Z" stroke="white" stroke-width="1.5"/>
</svg>
