<svg width="20" height="14" viewBox="0 0 20 14" fill="none" xmlns="http://www.w3.org/2000/svg">
<g opacity="0.8">
<path d="M15.94 0.752425L4.03039 12.6621" stroke="#CBC9D8" stroke-width="1.5" stroke-linecap="round"/>
<path fill-rule="evenodd" clip-rule="evenodd" d="M15.4649 2.29044C13.8381 1.4146 11.9771 0.91763 10.0001 0.91763C5.72697 0.91763 1.9961 3.23923 0 6.68989C1.33983 9.00607 3.46125 10.8135 6.00362 11.7517L7.195 10.5603C4.98083 9.91747 3.08152 8.53248 1.78444 6.68989C3.60308 4.10638 6.60567 2.42248 10.0001 2.42248C11.5566 2.42248 13.0308 2.77657 14.3462 3.40914L15.4649 2.29044ZM8.97759 10.9059C9.31381 10.9399 9.65491 10.9573 10.0001 10.9573C13.3945 10.9573 16.3971 9.27341 18.2157 6.6899C17.5292 5.71464 16.6739 4.86757 15.6926 4.19089L16.772 3.11145C18.0828 4.06239 19.1858 5.28219 20.0001 6.6899C18.004 10.1406 14.2732 12.4622 10.0001 12.4622C9.19793 12.4622 8.4149 12.3803 7.65887 12.2246L8.97759 10.9059Z" fill="#CBC9D8"/>
<path fill-rule="evenodd" clip-rule="evenodd" d="M12.7735 4.98138C12.1998 4.05197 11.1721 3.43257 9.99971 3.43257C8.20077 3.43257 6.74243 4.8909 6.74243 6.68985C6.74243 7.86225 7.36183 8.88998 8.29124 9.46365L9.41317 8.34172C8.73378 8.10047 8.24728 7.45197 8.24728 6.68985C8.24728 5.72201 9.03187 4.93742 9.99971 4.93742C10.7618 4.93742 11.4103 5.42392 11.6516 6.10331L12.7735 4.98138ZM9.93653 9.94653C9.95754 9.94693 9.9786 9.94713 9.99971 9.94713C11.7987 9.94713 13.257 8.4888 13.257 6.68985C13.257 6.66874 13.2568 6.64768 13.2564 6.62667L9.93653 9.94653Z" fill="#CBC9D8"/>
</g>
</svg>
